<svg width="59" height="59" viewBox="0 0 59 59" fill="none" xmlns="http://www.w3.org/2000/svg">
<g filter="url(#filter0_d_113_6724)">
<path d="M29.4998 5C18.1781 5 9 14.1781 9 25.4998C9 36.8215 18.1781 46 29.4998 46C40.8215 46 50 36.8215 50 25.4998C49.9872 14.1833 40.8167 5.01268 29.4998 5Z" fill="white"/>
<path d="M27.0987 17.5533C26.6723 17.1804 26.0248 17.2241 25.6521 17.6501C25.2797 18.0765 25.3232 18.724 25.7493 19.0967L33.0674 25.4997L25.7489 31.9031C25.3225 32.2759 25.2793 32.9233 25.6517 33.3493C26.0244 33.7758 26.6719 33.8193 27.0984 33.4466L35.2982 26.2715C35.4082 26.1752 35.4964 26.0566 35.5568 25.9235C35.6173 25.7904 35.6485 25.6459 35.6485 25.4997C35.6485 25.3535 35.6173 25.209 35.5568 25.0759C35.4964 24.9428 35.4082 24.8241 35.2982 24.7279L27.0987 17.5533Z" fill="#719AA8"/>
</g>
<defs>
<filter id="filter0_d_113_6724" x="0" y="0" width="59" height="59" filterUnits="userSpaceOnUse" color-interpolation-filters="sRGB">
<feFlood flood-opacity="0" result="BackgroundImageFix"/>
<feColorMatrix in="SourceAlpha" type="matrix" values="0 0 0 0 0 0 0 0 0 0 0 0 0 0 0 0 0 0 127 0" result="hardAlpha"/>
<feOffset dy="4"/>
<feGaussianBlur stdDeviation="4.5"/>
<feComposite in2="hardAlpha" operator="out"/>
<feColorMatrix type="matrix" values="0 0 0 0 0 0 0 0 0 0 0 0 0 0 0 0 0 0 0.1 0"/>
<feBlend mode="normal" in2="BackgroundImageFix" result="effect1_dropShadow_113_6724"/>
<feBlend mode="normal" in="SourceGraphic" in2="effect1_dropShadow_113_6724" result="shape"/>
</filter>
</defs>
</svg>
